<?xml version="1.0" standalone="no"?><!DOCTYPE svg PUBLIC "-//W3C//DTD SVG 1.1//EN" "http://www.w3.org/Graphics/SVG/1.1/DTD/svg11.dtd"><svg t="1678935008093" class="icon" viewBox="0 0 1024 1024" version="1.1" xmlns="http://www.w3.org/2000/svg" p-id="3365" xmlns:xlink="http://www.w3.org/1999/xlink" width="128" height="128"><path d="M890.666667 234.666667A469.333333 469.333333 0 0 0 42.666667 512a463.36 463.36 0 0 0 12.373333 106.666667 469.333333 469.333333 0 0 1 161.92-258.133334 42.666667 42.666667 0 0 1 49.066667-3.626666A466.56 466.56 0 0 0 512 426.666667a466.56 466.56 0 0 0 245.973333-69.76 42.666667 42.666667 0 0 1 49.066667 3.626666A469.333333 469.333333 0 0 1 968.96 618.666667a469.333333 469.333333 0 0 0-78.293333-384z" fill="#333333" p-id="3366"></path><path d="M341.333333 512a42.666667 42.666667 0 0 0-42.666666 42.666667v85.333333a42.666667 42.666667 0 0 0 85.333333 0v-85.333333a42.666667 42.666667 0 0 0-42.666667-42.666667zM682.666667 512a42.666667 42.666667 0 0 0-42.666667 42.666667v85.333333a42.666667 42.666667 0 0 0 85.333333 0v-85.333333a42.666667 42.666667 0 0 0-42.666666-42.666667z" fill="#333333" p-id="3367"></path><path d="M512 1024a512 512 0 1 1 512-512 512 512 0 0 1-512 512z m0-938.666667a426.666667 426.666667 0 1 0 426.666667 426.666667A426.666667 426.666667 0 0 0 512 85.333333z" fill="#333333" p-id="3368"></path></svg>